<svg xmlns="http://www.w3.org/2000/svg" xmlns:xlink="http://www.w3.org/1999/xlink" width="2452" height="2452" viewBox="0 0 2452 2452">
  <defs>
    <linearGradient id="linear-gradient" x1="0.134" y1="0.114" x2="1" y2="1.048" gradientUnits="objectBoundingBox">
      <stop offset="0" stop-color="#0090e7"/>
      <stop offset="1" stop-color="#00c6de"/>
    </linearGradient>
  </defs>
  <path id="fi-rr-add" d="M1226,0C548.9,0,0,548.9,0,1226S548.9,2452,1226,2452s1226-548.9,1226-1226C2451.268,549.2,1902.8.732,1226,0Zm0,2247.667c-564.251,0-1021.667-457.416-1021.667-1021.667S661.749,204.333,1226,204.333,2247.667,661.749,2247.667,1226C2247.047,1789.994,1789.994,2247.048,1226,2247.667ZM1736.833,1226a102.167,102.167,0,0,1-102.167,102.167h-306.5v306.5a102.167,102.167,0,0,1-204.333,0v-306.5h-306.5a102.167,102.167,0,0,1,0-204.333h306.5v-306.5a102.167,102.167,0,1,1,204.333,0v306.5h306.5A102.167,102.167,0,0,1,1736.833,1226Z" fill="url(#linear-gradient)"/>
</svg>
